<svg width="20" height="20" viewBox="0 0 20 20" fill="none" xmlns="http://www.w3.org/2000/svg">
<path d="M12.3333 18.9307C10.7646 19.0237 9.21872 19.0231 7.66666 18.9288V18.9206V18.9077V18.8947V18.8817V18.8686V18.8554V18.8422V18.8289V18.8155V18.8021V18.7886V18.7751V18.7615V18.7478V18.734V18.7203V18.7064V18.6925V18.6785V18.6645V18.6504V18.6362V18.622V18.6078V18.5935V18.5791V18.5647V18.5502V18.5356V18.521V18.5064V18.4917V18.4769V18.4621V18.4473V18.4324V18.4174V18.4024V18.3874V18.3722V18.3571V18.3419V18.3266V18.3113V18.296V18.2806V18.2652V18.2497V18.2341V18.2186V18.2029V18.1873V18.1716V18.1558V18.14V18.1242V18.1083V18.0924V18.0764V18.0605V18.0444V18.0283V18.0122V17.9961V17.9799V17.9637V17.9474V17.9311V17.9147V17.8984V17.882V17.8655V17.849V17.8325V17.816V17.7994V17.7828V17.7662V17.7495V17.7328V17.7161V17.6993V17.6825V17.6657V17.6488V17.632V17.6151V17.5981V17.5812V17.5642V17.5472V17.5301V17.5131V17.496V17.4789V17.4617V17.4446V17.4274V17.4102V17.393V17.3757V17.3585V17.3412V17.3239V17.3066V17.2892V17.2719V17.2545V17.2371V17.2197V17.2023V17.1848V17.1673V17.1499V17.1324V17.1149V17.0974V17.0798V17.0623V17.0447V17.0272V17.0096V16.992V16.9744V16.9568V16.9392V16.9215V16.9039V16.8862V16.8686V16.8509V16.8333V16.8156V16.7979V16.7802V16.7625V16.7448V16.7271V16.7094V16.6917V16.674V16.6563V16.6386V16.6209V16.6032V16.5854V16.5677V16.55V16.5323V16.5146V16.4969V16.4792V16.4615V16.4438V16.4261V16.4084V16.3907V16.373V16.3553V16.3377V16.32V16.3023V16.2847V16.267V16.2494V16.2318V16.2142V16.1966V16.179V16.1614V16.1438V16.1263V16.1087V16.0912V16.0737V16.0561V16.0387V16.0212V16.0037V15.9863V15.9688V15.9514V15.934V15.9166V15.8993V15.8819V15.8646V15.8473V15.83V15.8127V15.7955V15.7782V15.761V15.7438V15.7267V15.7095V15.6924V15.6753V15.6583V15.6412V15.6242V15.6072V15.5902V15.5733V15.5564V15.5395V15.5226V15.5058V15.489V15.4722V15.4555V15.4388V15.4221V15.4055V15.3888V15.3723V15.3557V15.3392V15.3227V15.3062V15.2898V15.2734V15.2571V15.2408V15.2245V15.2083V15.1921V15.1759V15.1598V15.1437V15.1276V15.1116V15.0957V15.0797V15.0639V15.048V15.0322V15.0164V15.0007V14.985V14.9694V14.9538V14.9383V14.9228V14.9073V14.8919V14.8766V14.8612V14.846V14.8308V14.8156V14.8005V14.7854V14.7704V14.7554V14.7405V14.7256V14.7108V14.696V14.6813V14.6667V14.652V14.6375V14.623V14.6085V14.5942V14.5798V14.5655V14.5513V14.5372V14.523V14.509V14.495V14.4811V14.4672V14.4534V14.4396V14.426V14.4123V14.3988V14.3853V14.3718V14.3584V14.3451V14.3319V14.3187V14.3055V14.2925V14.2795V14.2666V14.2537V14.2409V14.2282V14.2155V14.203V14.1904V14.178V14.1656V14.1533V14.1411V14.1289V14.1168V14.1048V14.0929V14.081V14.0692V14.0575V14.0458V14.0342V14.0227V14.0113V14V13.9887V13.9775V13.9664V13.9553V13.9444V13.9335V13.9227V13.912V13.9013V13.8908V13.8803V13.8699V13.8596V13.8494V13.8392V13.8292V13.8192V13.8093V13.7995V13.7898V13.7802V13.7706V13.7611V13.7518V13.7425V13.7333V13.7242V13.7152V13.7062V13.6974V13.6887V13.68V13.6715V13.663V13.6546V13.6463V13.6381V13.63V13.622V13.6141V13.6063V13.5986V13.591V13.5835V13.576V13.5687V13.5615V13.5544V13.5473V13.5404V13.5336V13.5268V13.5202V13.5137V13.5073V13.5009V13.4947V13.4886V13.4826V13.4767V13.4709V13.4652V13.4596V13.4541V13.4487V13.4434V13.4383V13.4332V13.4283C7.66666 13.3352 7.72314 13.1589 7.89538 12.9863C8.06776 12.8135 8.24267 12.7579 8.33333 12.7579H8.33822H8.34313H8.34806H8.35301H8.35798H8.36297H8.36797H8.373H8.37804H8.3831H8.38818H8.39328H8.39839H8.40352H8.40868H8.41385H8.41903H8.42424H8.42946H8.4347H8.43996H8.44524H8.45053H8.45584H8.46117H8.46651H8.47187H8.47725H8.48265H8.48806H8.49349H8.49894H8.5044H8.50988H8.51538H8.52089H8.52642H8.53197H8.53753H8.54311H8.5487H8.55431H8.55994H8.56558H8.57124H8.57691H8.5826H8.5883H8.59402H8.59976H8.60551H8.61128H8.61706H8.62286H8.62867H8.63449H8.64034H8.64619H8.65206H8.65795H8.66385H8.66976H8.67569H8.68164H8.68759H8.69357H8.69955H8.70555H8.71157H8.7176H8.72364H8.7297H8.73577H8.74185H8.74795H8.75406H8.76018H8.76632H8.77247H8.77863H8.78481H8.791H8.7972H8.80342H8.80965H8.81589H8.82214H8.82841H8.83469H8.84098H8.84728H8.8536H8.85993H8.86627H8.87262H8.87898H8.88536H8.89175H8.89815H8.90456H8.91098H8.91742H8.92387H8.93032H8.93679H8.94327H8.94976H8.95627H8.96278H8.96931H8.97584H8.98239H8.98894H8.99551H9.00209H9.00868H9.01528H9.02189H9.02851H9.03514H9.04178H9.04843H9.05509H9.06176H9.06844H9.07513H9.08183H9.08854H9.09526H9.10198H9.10872H9.11547H9.12222H9.12899H9.13576H9.14255H9.14934H9.15614H9.16295H9.16977H9.1766H9.18343H9.19028H9.19713H9.20399H9.21086H9.21774H9.22462H9.23152H9.23842H9.24533H9.25224H9.25917H9.2661H9.27304H9.27999H9.28695H9.29391H9.30088H9.30786H9.31484H9.32183H9.32883H9.33584H9.34285H9.34987H9.35689H9.36393H9.37097H9.37801H9.38506H9.39212H9.39919H9.40626H9.41333H9.42042H9.4275H9.4346H9.4417H9.44881H9.45592H9.46304H9.47016H9.47729H9.48442H9.49156H9.4987H9.50585H9.51301H9.52017H9.52733H9.5345H9.54167H9.54885H9.55604H9.56322H9.57042H9.57761H9.58482H9.59202H9.59923H9.60644H9.61366H9.62088H9.62811H9.63534H9.64257H9.64981H9.65705H9.66429H9.67154H9.67879H9.68604H9.6933H9.70056H9.70782H9.71509H9.72236H9.72963H9.7369H9.74418H9.75146H9.75874H9.76603H9.77331H9.7806H9.7879H9.79519H9.80249H9.80978H9.81708H9.82439H9.83169H9.83899H9.8463H9.85361H9.86092H9.86823H9.87554H9.88286H9.89017H9.89749H9.90481H9.91213H9.91945H9.92677H9.93409H9.94141H9.94873H9.95605H9.96338H9.9707H9.97802H9.98535H9.99267H10H10.0073H10.0146H10.022H10.0293H10.0366H10.0439H10.0513H10.0586H10.0659H10.0732H10.0805H10.0879H10.0952H10.1025H10.1098H10.1171H10.1244H10.1318H10.1391H10.1464H10.1537H10.161H10.1683H10.1756H10.1829H10.1902H10.1975H10.2048H10.2121H10.2194H10.2267H10.234H10.2412H10.2485H10.2558H10.2631H10.2704H10.2776H10.2849H10.2922H10.2994H10.3067H10.3139H10.3212H10.3285H10.3357H10.3429H10.3502H10.3574H10.3647H10.3719H10.3791H10.3863H10.3935H10.4008H10.408H10.4152H10.4224H10.4296H10.4368H10.444H10.4511H10.4583H10.4655H10.4727H10.4798H10.487H10.4941H10.5013H10.5084H10.5156H10.5227H10.5298H10.537H10.5441H10.5512H10.5583H10.5654H10.5725H10.5796H10.5867H10.5937H10.6008H10.6079H10.6149H10.622H10.629H10.6361H10.6431H10.6501H10.6571H10.6642H10.6712H10.6782H10.6851H10.6921H10.6991H10.7061H10.713H10.72H10.7269H10.7339H10.7408H10.7477H10.7547H10.7616H10.7685H10.7754H10.7823H10.7891H10.796H10.8029H10.8097H10.8166H10.8234H10.8302H10.837H10.8439H10.8507H10.8574H10.8642H10.871H10.8778H10.8845H10.8913H10.898H10.9047H10.9115H10.9182H10.9249H10.9316H10.9382H10.9449H10.9516H10.9582H10.9649H10.9715H10.9781H10.9847H10.9913H10.9979H11.0045H11.011H11.0176H11.0241H11.0307H11.0372H11.0437H11.0502H11.0567H11.0632H11.0697H11.0761H11.0826H11.089H11.0954H11.1018H11.1082H11.1146H11.121H11.1274H11.1337H11.1401H11.1464H11.1527H11.159H11.1653H11.1716H11.1779H11.1841H11.1903H11.1966H11.2028H11.209H11.2152H11.2214H11.2275H11.2337H11.2398H11.2459H11.252H11.2581H11.2642H11.2703H11.2764H11.2824H11.2884H11.2944H11.3004H11.3064H11.3124H11.3184H11.3243H11.3302H11.3361H11.342H11.3479H11.3538H11.3597H11.3655H11.3713H11.3771H11.3829H11.3887H11.3945H11.4002H11.406H11.4117H11.4174H11.4231H11.4288H11.4344H11.4401H11.4457H11.4513H11.4569H11.4625H11.468H11.4736H11.4791H11.4846H11.4901H11.4956H11.5011H11.5065H11.5119H11.5173H11.5227H11.5281H11.5335H11.5388H11.5442H11.5495H11.5548H11.56H11.5653H11.5705H11.5758H11.581H11.5861H11.5913H11.5965H11.6016H11.6067H11.6118H11.6169H11.622H11.627H11.632H11.637H11.642H11.647H11.6519H11.6569H11.6618H11.6667C11.7573 12.7579 11.9322 12.8135 12.1046 12.9863C12.2769 13.1589 12.3333 13.3352 12.3333 13.4283V16.9585V16.9761V16.9937V17.0113V17.0289V17.0465V17.0641V17.0816V17.0992V17.239V17.5151V17.785V17.917V17.9334V17.9497V17.966V17.9822V17.9984V18.0146V18.0307V18.0468V18.0628V18.0788V18.0948V18.1107V18.1266V18.1425V18.1583V18.174V18.2366V18.2522V18.2677V18.2831V18.2985V18.3139V18.3292V18.3444V18.3596V18.3748V18.3899V18.405V18.42V18.435V18.4499V18.4648V18.4796V18.4943V18.509V18.5237V18.5383V18.5528V18.5673V18.5818V18.5962V18.6105V18.6247V18.639V18.6531V18.6672V18.6813V18.6952V18.7092V18.723V18.7368V18.7506V18.7642V18.9307ZM5.66666 18.7478V18.7562C5.45247 18.7323 5.23788 18.7067 5.02282 18.6792C3.81968 18.5258 3.0765 18.234 2.59203 17.8409C2.12836 17.4647 1.79272 16.9067 1.58953 15.9781C0.785163 12.3024 0.980062 9.02635 1.15903 7.74114C1.17568 7.71595 1.20085 7.68048 1.23717 7.63406C1.35414 7.4846 1.53667 7.28487 1.78747 7.03769C2.28602 6.54634 2.98206 5.93784 3.78031 5.27758C5.37236 3.96075 7.30389 2.49301 8.71338 1.44358C9.50471 0.854403 10.5771 0.851966 11.3704 1.43736C12.7916 2.48603 14.74 3.95532 16.3359 5.27341C17.1363 5.93455 17.8294 6.54239 18.3193 7.03171C18.5661 7.27818 18.7407 7.47427 18.8484 7.61781C18.8707 7.64751 18.8877 7.6718 18.9004 7.69092C18.9923 9.07276 19.1992 12.3443 18.4798 15.9987C18.2981 16.9216 17.9658 17.4738 17.5022 17.8463C17.0136 18.2388 16.2598 18.5282 15.0533 18.6789C14.8124 18.709 14.5724 18.7369 14.3333 18.7628V18.7506V18.7368V18.723V18.7092V18.6531V18.639V18.6247V18.6105V18.5962V18.5818V18.5673V18.5528V18.5383V18.42V18.405V18.3899V18.3748V18.3596V18.3444V18.3292V18.3139V18.2985V18.2831V18.2677V18.2522V18.2366V18.174V18.1583V18.1425V18.1266V18.1107V18.0948V18.0788V18.0628V18.0468V18.0307V18.0146V17.9984V17.9822V17.966V17.9497V17.9334V17.917V17.8513V17.8348V17.8182V17.8016V17.785V17.5151V17.239V17.0992V17.0816V17.0641V17.0465V17.0289V17.0113V16.9937V16.9761V16.9585V13.4283C14.3333 12.6862 13.9731 12.0274 13.5204 11.5736C13.0678 11.12 12.4093 10.7579 11.6667 10.7579H11.6618H11.6569H11.6519H11.647H11.642H11.637H11.632H11.627H11.622H11.6169H11.6118H11.6067H11.6016H11.5965H11.5913H11.5861H11.581H11.5758H11.5705H11.5653H11.56H11.5548H11.5495H11.5442H11.5388H11.5335H11.5281H11.5227H11.5173H11.5119H11.5065H11.5011H11.4956H11.4901H11.4846H11.4791H11.4736H11.468H11.4625H11.4569H11.4513H11.4457H11.4401H11.4344H11.4288H11.4231H11.4174H11.4117H11.406H11.4002H11.3945H11.3887H11.3829H11.3771H11.3713H11.3655H11.3597H11.3538H11.3479H11.342H11.3361H11.3302H11.3243H11.3184H11.3124H11.3064H11.3004H11.2944H11.2884H11.2824H11.2764H11.2703H11.2642H11.2581H11.252H11.2459H11.2398H11.2337H11.2275H11.2214H11.2152H11.209H11.2028H11.1966H11.1903H11.1841H11.1779H11.1716H11.1653H11.159H11.1527H11.1464H11.1401H11.1337H11.1274H11.121H11.1146H11.1082H11.1018H11.0954H11.089H11.0826H11.0761H11.0697H11.0632H11.0567H11.0502H11.0437H11.0372H11.0307H11.0241H11.0176H11.011H11.0045H10.9979H10.9913H10.9847H10.9781H10.9715H10.9649H10.9582H10.9516H10.9449H10.9382H10.9316H10.9249H10.9182H10.9115H10.9047H10.898H10.8913H10.8845H10.8778H10.871H10.8642H10.8574H10.8507H10.8439H10.837H10.8302H10.8234H10.8166H10.8097H10.8029H10.796H10.7891H10.7823H10.7754H10.7685H10.7616H10.7547H10.7477H10.7408H10.7339H10.7269H10.72H10.713H10.7061H10.6991H10.6921H10.6851H10.6782H10.6712H10.6642H10.6571H10.6501H10.6431H10.6361H10.629H10.622H10.6149H10.6079H10.6008H10.5937H10.5867H10.5796H10.5725H10.5654H10.5583H10.5512H10.5441H10.537H10.5298H10.5227H10.5156H10.5084H10.5013H10.4941H10.487H10.4798H10.4727H10.4655H10.4583H10.4511H10.444H10.4368H10.4296H10.4224H10.4152H10.408H10.4008H10.3935H10.3863H10.3791H10.3719H10.3647H10.3574H10.3502H10.3429H10.3357H10.3285H10.3212H10.3139H10.3067H10.2994H10.2922H10.2849H10.2776H10.2704H10.2631H10.2558H10.2485H10.2412H10.234H10.2267H10.2194H10.2121H10.2048H10.1975H10.1902H10.1829H10.1756H10.1683H10.161H10.1537H10.1464H10.1391H10.1318H10.1244H10.1171H10.1098H10.1025H10.0952H10.0879H10.0805H10.0732H10.0659H10.0586H10.0513H10.0439H10.0366H10.0293H10.022H10.0146H10.0073H10H9.99267H9.98535H9.97802H9.9707H9.96338H9.95605H9.94873H9.94141H9.93409H9.92677H9.91945H9.91213H9.90481H9.89749H9.89017H9.88286H9.87554H9.86823H9.86092H9.85361H9.8463H9.83899H9.83169H9.82439H9.81708H9.80978H9.80249H9.79519H9.7879H9.7806H9.77331H9.76603H9.75874H9.75146H9.74418H9.7369H9.72963H9.72236H9.71509H9.70782H9.70056H9.6933H9.68604H9.67879H9.67154H9.66429H9.65705H9.64981H9.64257H9.63534H9.62811H9.62088H9.61366H9.60644H9.59923H9.59202H9.58482H9.57761H9.57042H9.56322H9.55604H9.54885H9.54167H9.5345H9.52733H9.52017H9.51301H9.50585H9.4987H9.49156H9.48442H9.47729H9.47016H9.46304H9.45592H9.44881H9.4417H9.4346H9.4275H9.42042H9.41333H9.40626H9.39919H9.39212H9.38506H9.37801H9.37097H9.36393H9.35689H9.34987H9.34285H9.33584H9.32883H9.32183H9.31484H9.30786H9.30088H9.29391H9.28695H9.27999H9.27304H9.2661H9.25917H9.25224H9.24533H9.23842H9.23152H9.22462H9.21774H9.21086H9.20399H9.19713H9.19028H9.18343H9.1766H9.16977H9.16295H9.15614H9.14934H9.14255H9.13576H9.12899H9.12222H9.11547H9.10872H9.10198H9.09526H9.08854H9.08183H9.07513H9.06844H9.06176H9.05509H9.04843H9.04178H9.03514H9.02851H9.02189H9.01528H9.00868H9.00209H8.99551H8.98894H8.98239H8.97584H8.96931H8.96278H8.95627H8.94976H8.94327H8.93679H8.93032H8.92387H8.91742H8.91098H8.90456H8.89815H8.89175H8.88536H8.87898H8.87262H8.86627H8.85993H8.8536H8.84728H8.84098H8.83469H8.82841H8.82214H8.81589H8.80965H8.80342H8.7972H8.791H8.78481H8.77863H8.77247H8.76632H8.76018H8.75406H8.74795H8.74185H8.73577H8.7297H8.72364H8.7176H8.71157H8.70555H8.69955H8.69357H8.68759H8.68164H8.67569H8.66976H8.66385H8.65795H8.65206H8.64619H8.64034H8.63449H8.62867H8.62286H8.61706H8.61128H8.60551H8.59976H8.59402H8.5883H8.5826H8.57691H8.57124H8.56558H8.55994H8.55431H8.5487H8.54311H8.53753H8.53197H8.52642H8.52089H8.51538H8.50988H8.5044H8.49894H8.49349H8.48806H8.48265H8.47725H8.47187H8.46651H8.46117H8.45584H8.45053H8.44524H8.43996H8.4347H8.42946H8.42424H8.41903H8.41385H8.40868H8.40352H8.39839H8.39328H8.38818H8.3831H8.37804H8.373H8.36797H8.36297H8.35798H8.35301H8.34806H8.34313H8.33822H8.33333C7.59065 10.7579 6.93224 11.12 6.47961 11.5736C6.02685 12.0274 5.66666 12.6862 5.66666 13.4283V13.4332V13.4383V13.4434V13.4487V13.4541V13.4596V13.4652V13.4709V13.4767V13.4826V13.4886V13.4947V13.5009V13.5073V13.5137V13.5202V13.5268V13.5336V13.5404V13.5473V13.5544V13.5615V13.5687V13.576V13.5835V13.591V13.5986V13.6063V13.6141V13.622V13.63V13.6381V13.6463V13.6546V13.663V13.6715V13.68V13.6887V13.6974V13.7062V13.7152V13.7242V13.7333V13.7425V13.7518V13.7611V13.7706V13.7802V13.7898V13.7995V13.8093V13.8192V13.8292V13.8392V13.8494V13.8596V13.8699V13.8803V13.8908V13.9013V13.912V13.9227V13.9335V13.9444V13.9553V13.9664V13.9775V13.9887V14V14.0113V14.0227V14.0342V14.0458V14.0575V14.0692V14.081V14.0929V14.1048V14.1168V14.1289V14.1411V14.1533V14.1656V14.178V14.1904V14.203V14.2155V14.2282V14.2409V14.2537V14.2666V14.2795V14.2925V14.3055V14.3187V14.3319V14.3451V14.3584V14.3718V14.3853V14.3988V14.4123V14.426V14.4396V14.4534V14.4672V14.4811V14.495V14.509V14.523V14.5372V14.5513V14.5655V14.5798V14.5942V14.6085V14.623V14.6375V14.652V14.6667V14.6813V14.696V14.7108V14.7256V14.7405V14.7554V14.7704V14.7854V14.8005V14.8156V14.8308V14.846V14.8612V14.8766V14.8919V14.9073V14.9228V14.9383V14.9538V14.9694V14.985V15.0007V15.0164V15.0322V15.048V15.0639V15.0797V15.0957V15.1116V15.1276V15.1437V15.1598V15.1759V15.1921V15.2083V15.2245V15.2408V15.2571V15.2734V15.2898V15.3062V15.3227V15.3392V15.3557V15.3723V15.3888V15.4055V15.4221V15.4388V15.4555V15.4722V15.489V15.5058V15.5226V15.5395V15.5564V15.5733V15.5902V15.6072V15.6242V15.6412V15.6583V15.6753V15.6924V15.7095V15.7267V15.7438V15.761V15.7782V15.7955V15.8127V15.83V15.8473V15.8646V15.8819V15.8993V15.9166V15.934V15.9514V15.9688V15.9863V16.0037V16.0212V16.0387V16.0561V16.0737V16.0912V16.1087V16.1263V16.1438V16.1614V16.179V16.1966V16.2142V16.2318V16.2494V16.267V16.2847V16.3023V16.32V16.3377V16.3553V16.373V16.3907V16.4084V16.4261V16.4438V16.4615V16.4792V16.4969V16.5146V16.5323V16.55V16.5677V16.5854V16.6032V16.6209V16.6386V16.6563V16.674V16.6917V16.7094V16.7271V16.7448V16.7625V16.7802V16.7979V16.8156V16.8333V16.8509V16.8686V16.8862V16.9039V16.9215V16.9392V16.9568V16.9744V16.992V17.0096V17.0272V17.0447V17.0623V17.0798V17.0974V17.1149V17.1324V17.1499V17.1673V17.1848V17.2023V17.2197V17.2371V17.2545V17.2719V17.2892V17.3066V17.3239V17.3412V17.3585V17.3757V17.393V17.4102V17.4274V17.4446V17.4617V17.4789V17.496V17.5131V17.5301V17.5472V17.5642V17.5812V17.5981V17.6151V17.632V17.6488V17.6657V17.6825V17.6993V17.7161V17.7328V17.7495V17.7662V17.7828V17.7994V17.816V17.8325V17.849V17.8655V17.882V17.8984V17.9147V17.9311V17.9474V17.9637V17.9799V17.9961V18.0122V18.0283V18.0444V18.0605V18.0764V18.0924V18.1083V18.1242V18.14V18.1558V18.1716V18.1873V18.2029V18.2186V18.2341V18.2497V18.2652V18.2806V18.296V18.3113V18.3266V18.3419V18.3571V18.3722V18.3874V18.4024V18.4174V18.4324V18.4473V18.4621V18.4769V18.4917V18.5064V18.521V18.5356V18.5502V18.5647V18.5791V18.5935V18.6078V18.622V18.6362V18.6504V18.6645V18.6785V18.6925V18.7064V18.7203V18.734V18.7478ZM1.13276 7.785C1.13265 7.78503 1.13359 7.78298 1.1359 7.77876C1.13402 7.78285 1.13286 7.78496 1.13276 7.785ZM18.9314 7.74168C18.9347 7.74812 18.9339 7.74746 18.9307 7.74031C18.931 7.7408 18.9312 7.74126 18.9314 7.74168Z" stroke="white" stroke-opacity="0.5" stroke-width="2" stroke-linecap="round" stroke-linejoin="round"/>
</svg>
